<?xml version="1.0" encoding="UTF-8"?>
<svg width="20mm" height="20mm" version="1.1" viewBox="0 0 20 20" xmlns="http://www.w3.org/2000/svg" xmlns:cc="http://creativecommons.org/ns#" xmlns:dc="http://purl.org/dc/elements/1.1/" xmlns:rdf="http://www.w3.org/1999/02/22-rdf-syntax-ns#">
    <title>Chatbot icon</title>
    <metadata>
        <rdf:RDF>
            <cc:Work rdf:about="">
                <dc:format>image/svg+xml</dc:format>
                <dc:type rdf:resource="http://purl.org/dc/dcmitype/StillImage"/>
                <dc:title>Chatbot icon</dc:title>
                <dc:date>2018-09-30</dc:date>
                <dc:creator>
                    <cc:Agent>
                        <dc:title>m1981</dc:title>
                    </cc:Agent>
                </dc:creator>
                <dc:rights>
                    <cc:Agent>
                        <dc:title>Public domain</dc:title>
                    </cc:Agent>
                </dc:rights>
                <dc:publisher>
                    <cc:Agent>
                        <dc:title>Inkscape</dc:title>
                    </cc:Agent>
                </dc:publisher>
                <dc:subject>
                    <rdf:Bag>
                        <rdf:li>icon</rdf:li>
                        <rdf:li>flat</rdf:li>
                        <rdf:li>IT</rdf:li>
                        <rdf:li>computer</rdf:li>
                        <rdf:li>chatbot</rdf:li>
                        <rdf:li>question</rdf:li>
                        <rdf:li>deeplearning</rdf:li>
                        <rdf:li>AI</rdf:li>
                        <rdf:li>artificial</rdf:li>
                        <rdf:li>intelligence</rdf:li>
                        <rdf:li>chat</rdf:li>
                        <rdf:li>bot</rdf:li>
                        <rdf:li/>
                    </rdf:Bag>
                </dc:subject>
                <dc:description>An AI chatbot icon.</dc:description>
            </cc:Work>
        </rdf:RDF>
    </metadata>
    <g transform="translate(-25.415 -111.28)">
        <path d="m35.412 115.59c-1.442 0-2.8807 0.49168-4.0524 1.4748-0.70518 0.59173-1.2502 1.3117-1.6287 2.1001-0.05253-5e-3 -0.10365-0.0164-0.15759-0.0164-0.94187 0-1.7002 0.75836-1.7002 1.7002v2.1013c0 0.94184 0.75837 1.7002 1.7002 1.7002 0.05394 0 0.10506-0.0117 0.15759-0.0164 0.06777 0.14047 0.13789 0.27991 0.21692 0.41689 0.30894 0.55139 1.1343 0.0793 0.81559-0.46655-1.305-2.2603-0.79957-5.1245 1.1997-6.8021 1.9993-1.6776 4.9034-1.6776 6.9027 0 1.9993 1.6776 2.5047 4.5417 1.1997 6.8021l-0.01407 0.0234-0.0094 0.0234s-0.6338 1.4021-1.8783 1.4021l-1.5754-0.0141c-0.14774-0.21575-0.38419-0.366-0.66651-0.366h-1.0155c-0.45534 0-0.82164 0.36752-0.82164 0.82286 0 0.28087 0.17822 0.49415 0.58606 0.49415l3.493 2.8e-4c1.8676 0 2.6753-1.8335 2.7121-1.9184v-5e-3c0.07832-0.13578 0.14727-0.27521 0.21457-0.41444 0.05488 5e-3 0.10834 0.0164 0.16486 0.0164 0.94187 0 1.7002-0.75836 1.7002-1.7002v-2.1013c0-0.94184-0.75837-1.7002-1.7002-1.7002-0.05441 0-0.10576 9e-3 -0.15876 0.0164-0.37763-0.78846-0.92102-1.5084-1.6263-2.1001-1.1716-0.98312-2.6164-1.4748-4.0585-1.4748zm-2.0492 2.9872c-0.36602-0.0239-0.70035 0.0535-0.9925 0.36114-0.77905 0.82018-1.2603 1.9365-1.2603 3.1253 0 0.98061 0.32772 2.0794 0.87979 2.1195 0.78651 0.0572 2.0277-0.45928 3.4247-0.45928 1.4804 0 2.7868 0.57951 3.5616 0.44232 0.46953-0.083 0.74406-1.2054 0.74406-2.1026 0-1.1888-0.48245-2.3052-1.2615-3.1253-0.77905-0.82021-1.8553 0-3.0441 0-0.74301 0-1.4416-0.32109-2.0516-0.36114zm-0.17447 2.0213c0.4343 1.7e-4 0.78634 0.35219 0.78649 0.78651-1.41e-4 0.43431-0.35218 0.78633-0.78649 0.78649-0.4343-1.6e-4 -0.78634-0.35218-0.78648-0.78649 1.4e-4 -0.43432 0.35218-0.78634 0.78648-0.78651zm4.4523 0c0.43433 1.7e-4 0.78634 0.35219 0.78651 0.78651-1.66e-4 0.43431-0.35218 0.78633-0.78651 0.78649-0.4343-1.6e-4 -0.78632-0.35218-0.78648-0.78649 1.64e-4 -0.43432 0.35218-0.78634 0.78648-0.78651z" fill="#4d4d4d" fill-rule="evenodd"/>
    </g>
</svg>